<svg width="341" height="195" viewBox="0 0 341 195" fill="none" xmlns="http://www.w3.org/2000/svg">
<path d="M340.612 186.525H332.505V194.64H340.612V186.525Z" fill="white"/>
<path d="M340.612 97.3201H332.505V105.428H340.612V97.3201Z" fill="white"/>
<path d="M340.612 89.2125H332.505V97.32H340.612V89.2125Z" fill="white"/>
<path d="M340.612 81.0975H332.505V89.2126H340.612V81.0975Z" fill="white"/>
<path d="M340.612 72.99H332.505V81.0975H340.612V72.99Z" fill="white"/>
<path d="M332.505 186.525H324.397V194.64H332.505V186.525Z" fill="white"/>
<path d="M332.505 113.535H324.397V121.65H332.505V113.535Z" fill="white"/>
<path d="M332.505 105.427H324.397V113.535H332.505V105.427Z" fill="white"/>
<path d="M332.505 97.3201H324.397V105.428H332.505V97.3201Z" fill="white"/>
<path d="M332.505 89.2125H324.397V97.32H332.505V89.2125Z" fill="white"/>
<path d="M332.505 81.0975H324.397V89.2126H332.505V81.0975Z" fill="white"/>
<path d="M332.505 72.99H324.397V81.0975H332.505V72.99Z" fill="white"/>
<path d="M332.505 64.8826H324.397V72.99H332.505V64.8826Z" fill="white"/>
<path d="M332.505 56.7675H324.397V64.8825H332.505V56.7675Z" fill="white"/>
<path d="M324.397 186.525H316.282V194.64H324.397V186.525Z" fill="white"/>
<path d="M324.397 121.65H316.282V129.757H324.397V121.65Z" fill="white"/>
<path d="M324.397 113.535H316.282V121.65H324.397V113.535Z" fill="white"/>
<path d="M324.397 105.427H316.282V113.535H324.397V105.427Z" fill="white"/>
<path d="M324.397 97.3201H316.282V105.428H324.397V97.3201Z" fill="white"/>
<path d="M324.397 89.2125H316.282V97.32H324.397V89.2125Z" fill="white"/>
<path d="M324.397 81.0975H316.282V89.2126H324.397V81.0975Z" fill="white"/>
<path d="M324.397 72.99H316.282V81.0975H324.397V72.99Z" fill="white"/>
<path d="M324.397 64.8826H316.282V72.99H324.397V64.8826Z" fill="white"/>
<path d="M324.397 56.7675H316.282V64.8825H324.397V56.7675Z" fill="white"/>
<path d="M324.397 48.66H316.282V56.7675H324.397V48.66Z" fill="white"/>
<path d="M316.282 186.525H308.175V194.64H316.282V186.525Z" fill="white"/>
<path d="M316.282 178.417H308.175V186.525H316.282V178.417Z" fill="white"/>
<path d="M316.282 129.757H308.175V137.865H316.282V129.757Z" fill="white"/>
<path d="M316.282 121.65H308.175V129.757H316.282V121.65Z" fill="white"/>
<path d="M316.282 113.535H308.175V121.65H316.282V113.535Z" fill="white"/>
<path d="M316.282 105.427H308.175V113.535H316.282V105.427Z" fill="white"/>
<path d="M316.282 97.3201H308.175V105.428H316.282V97.3201Z" fill="white"/>
<path d="M316.282 89.2125H308.175V97.32H316.282V89.2125Z" fill="white"/>
<path d="M316.282 81.0975H308.175V89.2126H316.282V81.0975Z" fill="white"/>
<path d="M316.282 72.99H308.175V81.0975H316.282V72.99Z" fill="white"/>
<path d="M316.282 64.8826H308.175V72.99H316.282V64.8826Z" fill="white"/>
<path d="M316.282 56.7675H308.175V64.8825H316.282V56.7675Z" fill="white"/>
<path d="M316.282 48.66H308.175V56.7675H316.282V48.66Z" fill="white"/>
<path d="M316.282 40.5525H308.175V48.66H316.282V40.5525Z" fill="white"/>
<path d="M308.175 186.525H300.067V194.64H308.175V186.525Z" fill="white"/>
<path d="M308.175 178.417H300.067V186.525H308.175V178.417Z" fill="white"/>
<path d="M308.175 137.865H300.067V145.98H308.175V137.865Z" fill="white"/>
<path d="M308.175 129.757H300.067V137.865H308.175V129.757Z" fill="white"/>
<path d="M308.175 121.65H300.067V129.757H308.175V121.65Z" fill="white"/>
<path d="M308.175 113.535H300.067V121.65H308.175V113.535Z" fill="white"/>
<path d="M308.175 105.427H300.067V113.535H308.175V105.427Z" fill="white"/>
<path d="M308.175 97.3201H300.067V105.428H308.175V97.3201Z" fill="white"/>
<path d="M308.175 89.2125H300.067V97.32H308.175V89.2125Z" fill="white"/>
<path d="M308.175 81.0975H300.067V89.2126H308.175V81.0975Z" fill="white"/>
<path d="M308.175 72.99H300.067V81.0975H308.175V72.99Z" fill="white"/>
<path d="M308.175 64.8826H300.067V72.99H308.175V64.8826Z" fill="white"/>
<path d="M308.175 56.7675H300.067V64.8825H308.175V56.7675Z" fill="white"/>
<path d="M308.175 48.66H300.067V56.7675H308.175V48.66Z" fill="white"/>
<path d="M308.175 40.5525H300.067V48.66H308.175V40.5525Z" fill="white"/>
<path d="M308.175 32.4375H300.067V40.5526H308.175V32.4375Z" fill="white"/>
<path d="M300.068 186.525H291.953V194.64H300.068V186.525Z" fill="white"/>
<path d="M300.068 178.417H291.953V186.525H300.068V178.417Z" fill="white"/>
<path d="M300.068 145.98H291.953V154.087H300.068V145.98Z" fill="white"/>
<path d="M300.068 137.865H291.953V145.98H300.068V137.865Z" fill="white"/>
<path d="M300.068 129.757H291.953V137.865H300.068V129.757Z" fill="white"/>
<path d="M300.068 121.65H291.953V129.757H300.068V121.65Z" fill="white"/>
<path d="M300.068 113.535H291.953V121.65H300.068V113.535Z" fill="white"/>
<path d="M300.068 105.427H291.953V113.535H300.068V105.427Z" fill="white"/>
<path d="M300.068 97.3201H291.953V105.428H300.068V97.3201Z" fill="white"/>
<path d="M300.068 89.2125H291.953V97.32H300.068V89.2125Z" fill="white"/>
<path d="M300.068 81.0975H291.953V89.2126H300.068V81.0975Z" fill="white"/>
<path d="M300.068 72.99H291.953V81.0975H300.068V72.99Z" fill="white"/>
<path d="M300.068 64.8826H291.953V72.99H300.068V64.8826Z" fill="white"/>
<path d="M300.068 56.7675H291.953V64.8825H300.068V56.7675Z" fill="white"/>
<path d="M300.068 48.66H291.953V56.7675H300.068V48.66Z" fill="white"/>
<path d="M300.068 40.5525H291.953V48.66H300.068V40.5525Z" fill="white"/>
<path d="M300.068 32.4375H291.953V40.5526H300.068V32.4375Z" fill="white"/>
<path d="M300.068 24.33H291.953V32.4374H300.068V24.33Z" fill="white"/>
<path d="M291.952 178.417H283.845V186.525H291.952V178.417Z" fill="white"/>
<path d="M291.952 170.31H283.845V178.418H291.952V170.31Z" fill="white"/>
<path d="M291.952 145.98H283.845V154.087H291.952V145.98Z" fill="white"/>
<path d="M291.952 137.865H283.845V145.98H291.952V137.865Z" fill="white"/>
<path d="M291.952 129.757H283.845V137.865H291.952V129.757Z" fill="white"/>
<path d="M291.952 121.65H283.845V129.757H291.952V121.65Z" fill="white"/>
<path d="M291.952 113.535H283.845V121.65H291.952V113.535Z" fill="white"/>
<path d="M291.952 105.427H283.845V113.535H291.952V105.427Z" fill="white"/>
<path d="M291.952 97.3201H283.845V105.428H291.952V97.3201Z" fill="white"/>
<path d="M291.952 89.2125H283.845V97.32H291.952V89.2125Z" fill="white"/>
<path d="M291.952 81.0975H283.845V89.2126H291.952V81.0975Z" fill="white"/>
<path d="M291.952 72.99H283.845V81.0975H291.952V72.99Z" fill="white"/>
<path d="M291.952 64.8826H283.845V72.99H291.952V64.8826Z" fill="white"/>
<path d="M291.952 56.7675H283.845V64.8825H291.952V56.7675Z" fill="white"/>
<path d="M291.952 48.66H283.845V56.7675H291.952V48.66Z" fill="white"/>
<path d="M291.952 40.5525H283.845V48.66H291.952V40.5525Z" fill="white"/>
<path d="M291.952 32.4375H283.845V40.5526H291.952V32.4375Z" fill="white"/>
<path d="M291.952 24.33H283.845V32.4374H291.952V24.33Z" fill="white"/>
<path d="M283.845 178.417H275.737V186.525H283.845V178.417Z" fill="white"/>
<path d="M283.845 170.31H275.737V178.418H283.845V170.31Z" fill="white"/>
<path d="M283.845 162.195H275.737V170.31H283.845V162.195Z" fill="white"/>
<path d="M283.845 154.088H275.737V162.195H283.845V154.088Z" fill="white"/>
<path d="M283.845 145.98H275.737V154.087H283.845V145.98Z" fill="white"/>
<path d="M283.845 137.865H275.737V145.98H283.845V137.865Z" fill="white"/>
<path d="M283.845 129.757H275.737V137.865H283.845V129.757Z" fill="white"/>
<path d="M283.845 121.65H275.737V129.757H283.845V121.65Z" fill="white"/>
<path d="M283.845 113.535H275.737V121.65H283.845V113.535Z" fill="white"/>
<path d="M283.845 105.427H275.737V113.535H283.845V105.427Z" fill="white"/>
<path d="M283.845 97.3201H275.737V105.428H283.845V97.3201Z" fill="white"/>
<path d="M283.845 89.2125H275.737V97.32H283.845V89.2125Z" fill="white"/>
<path d="M283.845 81.0975H275.737V89.2126H283.845V81.0975Z" fill="white"/>
<path d="M283.845 72.99H275.737V81.0975H283.845V72.99Z" fill="white"/>
<path d="M283.845 64.8826H275.737V72.99H283.845V64.8826Z" fill="white"/>
<path d="M283.845 56.7675H275.737V64.8825H283.845V56.7675Z" fill="white"/>
<path d="M283.845 48.66H275.737V56.7675H283.845V48.66Z" fill="white"/>
<path d="M283.845 40.5525H275.737V48.66H283.845V40.5525Z" fill="white"/>
<path d="M283.845 32.4375H275.737V40.5526H283.845V32.4375Z" fill="white"/>
<path d="M283.845 24.33H275.737V32.4374H283.845V24.33Z" fill="white"/>
<path d="M283.845 16.2225H275.737V24.33H283.845V16.2225Z" fill="white"/>
<path d="M275.737 178.417H267.63V186.525H275.737V178.417Z" fill="white"/>
<path d="M275.737 170.31H267.63V178.418H275.737V170.31Z" fill="white"/>
<path d="M275.737 162.195H267.63V170.31H275.737V162.195Z" fill="white"/>
<path d="M275.737 154.088H267.63V162.195H275.737V154.088Z" fill="white"/>
<path d="M275.737 145.98H267.63V154.087H275.737V145.98Z" fill="white"/>
<path d="M275.737 137.865H267.63V145.98H275.737V137.865Z" fill="white"/>
<path d="M275.737 129.757H267.63V137.865H275.737V129.757Z" fill="white"/>
<path d="M275.737 121.65H267.63V129.757H275.737V121.65Z" fill="white"/>
<path d="M275.737 113.535H267.63V121.65H275.737V113.535Z" fill="white"/>
<path d="M275.737 105.427H267.63V113.535H275.737V105.427Z" fill="white"/>
<path d="M275.737 97.3201H267.63V105.428H275.737V97.3201Z" fill="white"/>
<path d="M275.737 89.2125H267.63V97.32H275.737V89.2125Z" fill="white"/>
<path d="M275.737 81.0975H267.63V89.2126H275.737V81.0975Z" fill="white"/>
<path d="M275.737 72.99H267.63V81.0975H275.737V72.99Z" fill="white"/>
<path d="M275.737 64.8826H267.63V72.99H275.737V64.8826Z" fill="white"/>
<path d="M275.737 56.7675H267.63V64.8825H275.737V56.7675Z" fill="white"/>
<path d="M275.737 48.66H267.63V56.7675H275.737V48.66Z" fill="white"/>
<path d="M275.737 40.5525H267.63V48.66H275.737V40.5525Z" fill="white"/>
<path d="M275.737 32.4375H267.63V40.5526H275.737V32.4375Z" fill="white"/>
<path d="M275.737 24.33H267.63V32.4374H275.737V24.33Z" fill="white"/>
<path d="M275.737 16.2225H267.63V24.33H275.737V16.2225Z" fill="white"/>
<path d="M267.63 170.31H259.515V178.418H267.63V170.31Z" fill="white"/>
<path d="M267.63 162.195H259.515V170.31H267.63V162.195Z" fill="white"/>
<path d="M267.63 154.088H259.515V162.195H267.63V154.088Z" fill="white"/>
<path d="M267.63 145.98H259.515V154.087H267.63V145.98Z" fill="white"/>
<path d="M267.63 137.865H259.515V145.98H267.63V137.865Z" fill="white"/>
<path d="M267.63 129.757H259.515V137.865H267.63V129.757Z" fill="white"/>
<path d="M267.63 121.65H259.515V129.757H267.63V121.65Z" fill="white"/>
<path d="M267.63 113.535H259.515V121.65H267.63V113.535Z" fill="white"/>
<path d="M267.63 105.427H259.515V113.535H267.63V105.427Z" fill="white"/>
<path d="M267.63 97.3201H259.515V105.428H267.63V97.3201Z" fill="white"/>
<path d="M267.63 89.2125H259.515V97.32H267.63V89.2125Z" fill="white"/>
<path d="M267.63 81.0975H259.515V89.2126H267.63V81.0975Z" fill="white"/>
<path d="M267.63 72.99H259.515V81.0975H267.63V72.99Z" fill="white"/>
<path d="M267.63 64.8826H259.515V72.99H267.63V64.8826Z" fill="white"/>
<path d="M267.63 56.7675H259.515V64.8825H267.63V56.7675Z" fill="white"/>
<path d="M267.63 48.66H259.515V56.7675H267.63V48.66Z" fill="white"/>
<path d="M267.63 40.5525H259.515V48.66H267.63V40.5525Z" fill="white"/>
<path d="M267.63 32.4375H259.515V40.5526H267.63V32.4375Z" fill="white"/>
<path d="M267.63 24.33H259.515V32.4374H267.63V24.33Z" fill="white"/>
<path d="M267.63 16.2225H259.515V24.33H267.63V16.2225Z" fill="white"/>
<path d="M259.515 162.195H251.407V170.31H259.515V162.195Z" fill="white"/>
<path d="M259.515 154.088H251.407V162.195H259.515V154.088Z" fill="white"/>
<path d="M259.515 145.98H251.407V154.087H259.515V145.98Z" fill="white"/>
<path d="M259.515 137.865H251.407V145.98H259.515V137.865Z" fill="white"/>
<path d="M259.515 129.757H251.407V137.865H259.515V129.757Z" fill="white"/>
<path d="M259.515 121.65H251.407V129.757H259.515V121.65Z" fill="white"/>
<path d="M259.515 113.535H251.407V121.65H259.515V113.535Z" fill="white"/>
<path d="M259.515 105.427H251.407V113.535H259.515V105.427Z" fill="white"/>
<path d="M259.515 97.3201H251.407V105.428H259.515V97.3201Z" fill="white"/>
<path d="M259.515 89.2125H251.407V97.32H259.515V89.2125Z" fill="white"/>
<path d="M259.515 81.0975H251.407V89.2126H259.515V81.0975Z" fill="white"/>
<path d="M259.515 72.99H251.407V81.0975H259.515V72.99Z" fill="white"/>
<path d="M259.515 64.8826H251.407V72.99H259.515V64.8826Z" fill="white"/>
<path d="M259.515 56.7675H251.407V64.8825H259.515V56.7675Z" fill="white"/>
<path d="M259.515 48.66H251.407V56.7675H259.515V48.66Z" fill="white"/>
<path d="M259.515 40.5525H251.407V48.66H259.515V40.5525Z" fill="white"/>
<path d="M259.515 32.4375H251.407V40.5526H259.515V32.4375Z" fill="white"/>
<path d="M259.515 24.33H251.407V32.4374H259.515V24.33Z" fill="white"/>
<path d="M259.515 16.2225H251.407V24.33H259.515V16.2225Z" fill="white"/>
<path d="M259.515 8.11511H251.407V16.2226H259.515V8.11511Z" fill="white"/>
<path d="M251.407 162.195H243.3V170.31H251.407V162.195Z" fill="white"/>
<path d="M251.407 154.088H243.3V162.195H251.407V154.088Z" fill="white"/>
<path d="M251.407 145.98H243.3V154.087H251.407V145.98Z" fill="white"/>
<path d="M251.407 137.865H243.3V145.98H251.407V137.865Z" fill="white"/>
<path d="M251.407 129.757H243.3V137.865H251.407V129.757Z" fill="white"/>
<path d="M251.407 121.65H243.3V129.757H251.407V121.65Z" fill="white"/>
<path d="M251.407 113.535H243.3V121.65H251.407V113.535Z" fill="white"/>
<path d="M251.407 105.427H243.3V113.535H251.407V105.427Z" fill="white"/>
<path d="M251.407 97.3201H243.3V105.428H251.407V97.3201Z" fill="white"/>
<path d="M251.407 89.2125H243.3V97.32H251.407V89.2125Z" fill="white"/>
<path d="M251.407 81.0975H243.3V89.2126H251.407V81.0975Z" fill="white"/>
<path d="M251.407 72.99H243.3V81.0975H251.407V72.99Z" fill="white"/>
<path d="M251.407 64.8826H243.3V72.99H251.407V64.8826Z" fill="white"/>
<path d="M251.407 56.7675H243.3V64.8825H251.407V56.7675Z" fill="white"/>
<path d="M251.407 48.66H243.3V56.7675H251.407V48.66Z" fill="white"/>
<path d="M251.407 40.5525H243.3V48.66H251.407V40.5525Z" fill="white"/>
<path d="M251.407 32.4375H243.3V40.5526H251.407V32.4375Z" fill="white"/>
<path d="M251.407 24.33H243.3V32.4374H251.407V24.33Z" fill="white"/>
<path d="M251.407 16.2225H243.3V24.33H251.407V16.2225Z" fill="white"/>
<path d="M251.407 8.11511H243.3V16.2226H251.407V8.11511Z" fill="white"/>
<path d="M243.3 162.195H235.185V170.31H243.3V162.195Z" fill="white"/>
<path d="M243.3 154.088H235.185V162.195H243.3V154.088Z" fill="white"/>
<path d="M243.3 145.98H235.185V154.087H243.3V145.98Z" fill="white"/>
<path d="M243.3 137.865H235.185V145.98H243.3V137.865Z" fill="white"/>
<path d="M243.3 129.757H235.185V137.865H243.3V129.757Z" fill="white"/>
<path d="M243.3 121.65H235.185V129.757H243.3V121.65Z" fill="white"/>
<path d="M243.3 113.535H235.185V121.65H243.3V113.535Z" fill="white"/>
<path d="M243.3 105.427H235.185V113.535H243.3V105.427Z" fill="white"/>
<path d="M243.3 97.3201H235.185V105.428H243.3V97.3201Z" fill="white"/>
<path d="M243.3 89.2125H235.185V97.32H243.3V89.2125Z" fill="white"/>
<path d="M243.3 81.0975H235.185V89.2126H243.3V81.0975Z" fill="white"/>
<path d="M243.3 72.99H235.185V81.0975H243.3V72.99Z" fill="white"/>
<path d="M243.3 64.8826H235.185V72.99H243.3V64.8826Z" fill="white"/>
<path d="M243.3 56.7675H235.185V64.8825H243.3V56.7675Z" fill="white"/>
<path d="M243.3 48.66H235.185V56.7675H243.3V48.66Z" fill="white"/>
<path d="M243.3 40.5525H235.185V48.66H243.3V40.5525Z" fill="white"/>
<path d="M243.3 32.4375H235.185V40.5526H243.3V32.4375Z" fill="white"/>
<path d="M243.3 24.33H235.185V32.4374H243.3V24.33Z" fill="white"/>
<path d="M243.3 16.2225H235.185V24.33H243.3V16.2225Z" fill="white"/>
<path d="M243.3 8.11511H235.185V16.2226H243.3V8.11511Z" fill="white"/>
<path d="M235.185 170.31H227.078V178.418H235.185V170.31Z" fill="white"/>
<path d="M235.185 162.195H227.078V170.31H235.185V162.195Z" fill="white"/>
<path d="M235.185 154.088H227.078V162.195H235.185V154.088Z" fill="white"/>
<path d="M235.185 145.98H227.078V154.087H235.185V145.98Z" fill="white"/>
<path d="M235.185 137.865H227.078V145.98H235.185V137.865Z" fill="white"/>
<path d="M235.185 129.757H227.078V137.865H235.185V129.757Z" fill="white"/>
<path d="M235.185 121.65H227.078V129.757H235.185V121.65Z" fill="white"/>
<path d="M235.185 113.535H227.078V121.65H235.185V113.535Z" fill="white"/>
<path d="M235.185 105.427H227.078V113.535H235.185V105.427Z" fill="white"/>
<path d="M235.185 97.3201H227.078V105.428H235.185V97.3201Z" fill="white"/>
<path d="M235.185 89.2125H227.078V97.32H235.185V89.2125Z" fill="white"/>
<path d="M235.185 81.0975H227.078V89.2126H235.185V81.0975Z" fill="white"/>
<path d="M235.185 72.99H227.078V81.0975H235.185V72.99Z" fill="white"/>
<path d="M235.185 64.8826H227.078V72.99H235.185V64.8826Z" fill="white"/>
<path d="M235.185 56.7675H227.078V64.8825H235.185V56.7675Z" fill="white"/>
<path d="M235.185 48.66H227.078V56.7675H235.185V48.66Z" fill="white"/>
<path d="M235.185 40.5525H227.078V48.66H235.185V40.5525Z" fill="white"/>
<path d="M235.185 32.4375H227.078V40.5526H235.185V32.4375Z" fill="white"/>
<path d="M235.185 24.33H227.078V32.4374H235.185V24.33Z" fill="white"/>
<path d="M235.185 16.2225H227.078V24.33H235.185V16.2225Z" fill="white"/>
<path d="M235.185 8.11511H227.078V16.2226H235.185V8.11511Z" fill="white"/>
<path d="M227.078 170.31H218.97V178.418H227.078V170.31Z" fill="white"/>
<path d="M227.078 162.195H218.97V170.31H227.078V162.195Z" fill="white"/>
<path d="M227.078 154.088H218.97V162.195H227.078V154.088Z" fill="white"/>
<path d="M227.078 145.98H218.97V154.087H227.078V145.98Z" fill="white"/>
<path d="M227.078 137.865H218.97V145.98H227.078V137.865Z" fill="white"/>
<path d="M227.078 129.757H218.97V137.865H227.078V129.757Z" fill="white"/>
<path d="M227.078 121.65H218.97V129.757H227.078V121.65Z" fill="white"/>
<path d="M227.078 113.535H218.97V121.65H227.078V113.535Z" fill="white"/>
<path d="M227.078 105.427H218.97V113.535H227.078V105.427Z" fill="white"/>
<path d="M227.078 97.3201H218.97V105.428H227.078V97.3201Z" fill="white"/>
<path d="M227.078 89.2125H218.97V97.32H227.078V89.2125Z" fill="white"/>
<path d="M227.078 81.0975H218.97V89.2126H227.078V81.0975Z" fill="white"/>
<path d="M227.078 72.99H218.97V81.0975H227.078V72.99Z" fill="white"/>
<path d="M227.078 64.8826H218.97V72.99H227.078V64.8826Z" fill="white"/>
<path d="M227.078 56.7675H218.97V64.8825H227.078V56.7675Z" fill="white"/>
<path d="M227.078 48.66H218.97V56.7675H227.078V48.66Z" fill="white"/>
<path d="M227.078 40.5525H218.97V48.66H227.078V40.5525Z" fill="white"/>
<path d="M227.078 32.4375H218.97V40.5526H227.078V32.4375Z" fill="white"/>
<path d="M227.078 24.33H218.97V32.4374H227.078V24.33Z" fill="white"/>
<path d="M227.078 16.2225H218.97V24.33H227.078V16.2225Z" fill="white"/>
<path d="M227.078 8.11511H218.97V16.2226H227.078V8.11511Z" fill="white"/>
<path d="M227.078 0H218.97V8.11506H227.078V0Z" fill="white"/>
<path d="M218.97 170.31H210.855V178.418H218.97V170.31Z" fill="white"/>
<path d="M218.97 162.195H210.855V170.31H218.97V162.195Z" fill="white"/>
<path d="M218.97 154.088H210.855V162.195H218.97V154.088Z" fill="white"/>
<path d="M218.97 145.98H210.855V154.087H218.97V145.98Z" fill="white"/>
<path d="M218.97 137.865H210.855V145.98H218.97V137.865Z" fill="white"/>
<path d="M218.97 129.757H210.855V137.865H218.97V129.757Z" fill="white"/>
<path d="M218.97 121.65H210.855V129.757H218.97V121.65Z" fill="white"/>
<path d="M218.97 113.535H210.855V121.65H218.97V113.535Z" fill="white"/>
<path d="M218.97 105.427H210.855V113.535H218.97V105.427Z" fill="white"/>
<path d="M218.97 97.3201H210.855V105.428H218.97V97.3201Z" fill="white"/>
<path d="M218.97 89.2125H210.855V97.32H218.97V89.2125Z" fill="white"/>
<path d="M218.97 81.0975H210.855V89.2126H218.97V81.0975Z" fill="white"/>
<path d="M218.97 72.99H210.855V81.0975H218.97V72.99Z" fill="white"/>
<path d="M218.97 64.8826H210.855V72.99H218.97V64.8826Z" fill="white"/>
<path d="M218.97 56.7675H210.855V64.8825H218.97V56.7675Z" fill="white"/>
<path d="M218.97 48.66H210.855V56.7675H218.97V48.66Z" fill="white"/>
<path d="M218.97 40.5525H210.855V48.66H218.97V40.5525Z" fill="white"/>
<path d="M218.97 32.4375H210.855V40.5526H218.97V32.4375Z" fill="white"/>
<path d="M218.97 24.33H210.855V32.4374H218.97V24.33Z" fill="white"/>
<path d="M218.97 16.2225H210.855V24.33H218.97V16.2225Z" fill="white"/>
<path d="M218.97 8.11511H210.855V16.2226H218.97V8.11511Z" fill="white"/>
<path d="M218.97 0H210.855V8.11506H218.97V0Z" fill="white"/>
<path d="M210.855 170.31H202.748V178.418H210.855V170.31Z" fill="white"/>
<path d="M210.855 162.195H202.748V170.31H210.855V162.195Z" fill="white"/>
<path d="M210.855 154.088H202.748V162.195H210.855V154.088Z" fill="white"/>
<path d="M210.855 145.98H202.748V154.087H210.855V145.98Z" fill="white"/>
<path d="M210.855 137.865H202.748V145.98H210.855V137.865Z" fill="white"/>
<path d="M210.855 129.757H202.748V137.865H210.855V129.757Z" fill="white"/>
<path d="M210.855 121.65H202.748V129.757H210.855V121.65Z" fill="white"/>
<path d="M210.855 113.535H202.748V121.65H210.855V113.535Z" fill="white"/>
<path d="M210.855 105.427H202.748V113.535H210.855V105.427Z" fill="white"/>
<path d="M210.855 97.3201H202.748V105.428H210.855V97.3201Z" fill="white"/>
<path d="M210.855 89.2125H202.748V97.32H210.855V89.2125Z" fill="white"/>
<path d="M210.855 81.0975H202.748V89.2126H210.855V81.0975Z" fill="white"/>
<path d="M210.855 72.99H202.748V81.0975H210.855V72.99Z" fill="white"/>
<path d="M210.855 64.8826H202.748V72.99H210.855V64.8826Z" fill="white"/>
<path d="M210.855 56.7675H202.748V64.8825H210.855V56.7675Z" fill="white"/>
<path d="M210.855 48.66H202.748V56.7675H210.855V48.66Z" fill="white"/>
<path d="M210.855 40.5525H202.748V48.66H210.855V40.5525Z" fill="white"/>
<path d="M210.855 32.4375H202.748V40.5526H210.855V32.4375Z" fill="white"/>
<path d="M210.855 24.33H202.748V32.4374H210.855V24.33Z" fill="white"/>
<path d="M210.855 16.2225H202.748V24.33H210.855V16.2225Z" fill="white"/>
<path d="M210.855 8.11511H202.748V16.2226H210.855V8.11511Z" fill="white"/>
<path d="M210.855 0H202.748V8.11506H210.855V0Z" fill="white"/>
<path d="M202.748 170.31H194.64V178.418H202.748V170.31Z" fill="white"/>
<path d="M202.748 162.195H194.64V170.31H202.748V162.195Z" fill="white"/>
<path d="M202.748 154.088H194.64V162.195H202.748V154.088Z" fill="white"/>
<path d="M202.748 145.98H194.64V154.087H202.748V145.98Z" fill="white"/>
<path d="M202.748 137.865H194.64V145.98H202.748V137.865Z" fill="white"/>
<path d="M202.748 129.757H194.64V137.865H202.748V129.757Z" fill="white"/>
<path d="M202.748 121.65H194.64V129.757H202.748V121.65Z" fill="white"/>
<path d="M202.748 113.535H194.64V121.65H202.748V113.535Z" fill="white"/>
<path d="M202.748 105.427H194.64V113.535H202.748V105.427Z" fill="white"/>
<path d="M202.748 97.3201H194.64V105.428H202.748V97.3201Z" fill="white"/>
<path d="M202.748 89.2125H194.64V97.32H202.748V89.2125Z" fill="white"/>
<path d="M202.748 81.0975H194.64V89.2126H202.748V81.0975Z" fill="white"/>
<path d="M202.748 72.99H194.64V81.0975H202.748V72.99Z" fill="white"/>
<path d="M202.748 64.8826H194.64V72.99H202.748V64.8826Z" fill="white"/>
<path d="M202.748 56.7675H194.64V64.8825H202.748V56.7675Z" fill="white"/>
<path d="M202.748 48.66H194.64V56.7675H202.748V48.66Z" fill="white"/>
<path d="M202.748 40.5525H194.64V48.66H202.748V40.5525Z" fill="white"/>
<path d="M202.748 32.4375H194.64V40.5526H202.748V32.4375Z" fill="white"/>
<path d="M202.748 24.33H194.64V32.4374H202.748V24.33Z" fill="white"/>
<path d="M202.748 16.2225H194.64V24.33H202.748V16.2225Z" fill="white"/>
<path d="M202.748 8.11511H194.64V16.2226H202.748V8.11511Z" fill="white"/>
<path d="M202.748 0H194.64V8.11506H202.748V0Z" fill="white"/>
<path d="M194.64 170.31H186.525V178.418H194.64V170.31Z" fill="white"/>
<path d="M194.64 162.195H186.525V170.31H194.64V162.195Z" fill="white"/>
<path d="M194.64 154.088H186.525V162.195H194.64V154.088Z" fill="white"/>
<path d="M194.64 145.98H186.525V154.087H194.64V145.98Z" fill="white"/>
<path d="M194.64 137.865H186.525V145.98H194.64V137.865Z" fill="white"/>
<path d="M194.64 129.757H186.525V137.865H194.64V129.757Z" fill="white"/>
<path d="M194.64 121.65H186.525V129.757H194.64V121.65Z" fill="white"/>
<path d="M194.64 113.535H186.525V121.65H194.64V113.535Z" fill="white"/>
<path d="M194.64 105.427H186.525V113.535H194.64V105.427Z" fill="white"/>
<path d="M194.64 97.3201H186.525V105.428H194.64V97.3201Z" fill="white"/>
<path d="M194.64 89.2125H186.525V97.32H194.64V89.2125Z" fill="white"/>
<path d="M194.64 81.0975H186.525V89.2126H194.64V81.0975Z" fill="white"/>
<path d="M194.64 72.99H186.525V81.0975H194.64V72.99Z" fill="white"/>
<path d="M194.64 64.8826H186.525V72.99H194.64V64.8826Z" fill="white"/>
<path d="M194.64 56.7675H186.525V64.8825H194.64V56.7675Z" fill="white"/>
<path d="M194.64 48.66H186.525V56.7675H194.64V48.66Z" fill="white"/>
<path d="M194.64 40.5525H186.525V48.66H194.64V40.5525Z" fill="white"/>
<path d="M194.64 32.4375H186.525V40.5526H194.64V32.4375Z" fill="white"/>
<path d="M194.64 24.33H186.525V32.4374H194.64V24.33Z" fill="white"/>
<path d="M194.64 16.2225H186.525V24.33H194.64V16.2225Z" fill="white"/>
<path d="M194.64 8.11511H186.525V16.2226H194.64V8.11511Z" fill="white"/>
<path d="M194.64 0H186.525V8.11506H194.64V0Z" fill="white"/>
<path d="M186.525 170.31H178.417V178.418H186.525V170.31Z" fill="white"/>
<path d="M186.525 162.195H178.417V170.31H186.525V162.195Z" fill="white"/>
<path d="M186.525 154.088H178.417V162.195H186.525V154.088Z" fill="white"/>
<path d="M186.525 145.98H178.417V154.087H186.525V145.98Z" fill="white"/>
<path d="M186.525 137.865H178.417V145.98H186.525V137.865Z" fill="white"/>
<path d="M186.525 129.757H178.417V137.865H186.525V129.757Z" fill="white"/>
<path d="M186.525 121.65H178.417V129.757H186.525V121.65Z" fill="white"/>
<path d="M186.525 113.535H178.417V121.65H186.525V113.535Z" fill="white"/>
<path d="M186.525 105.427H178.417V113.535H186.525V105.427Z" fill="white"/>
<path d="M186.525 97.3201H178.417V105.428H186.525V97.3201Z" fill="white"/>
<path d="M186.525 89.2125H178.417V97.32H186.525V89.2125Z" fill="white"/>
<path d="M186.525 81.0975H178.417V89.2126H186.525V81.0975Z" fill="white"/>
<path d="M186.525 72.99H178.417V81.0975H186.525V72.99Z" fill="white"/>
<path d="M186.525 64.8826H178.417V72.99H186.525V64.8826Z" fill="white"/>
<path d="M186.525 56.7675H178.417V64.8825H186.525V56.7675Z" fill="white"/>
<path d="M186.525 48.66H178.417V56.7675H186.525V48.66Z" fill="white"/>
<path d="M186.525 40.5525H178.417V48.66H186.525V40.5525Z" fill="white"/>
<path d="M186.525 32.4375H178.417V40.5526H186.525V32.4375Z" fill="white"/>
<path d="M186.525 24.33H178.417V32.4374H186.525V24.33Z" fill="white"/>
<path d="M186.525 16.2225H178.417V24.33H186.525V16.2225Z" fill="white"/>
<path d="M186.525 8.11511H178.417V16.2226H186.525V8.11511Z" fill="white"/>
<path d="M186.525 0H178.417V8.11506H186.525V0Z" fill="white"/>
<path d="M178.418 170.31H170.31V178.418H178.418V170.31Z" fill="white"/>
<path d="M178.418 162.195H170.31V170.31H178.418V162.195Z" fill="white"/>
<path d="M178.418 154.088H170.31V162.195H178.418V154.088Z" fill="white"/>
<path d="M178.418 145.98H170.31V154.087H178.418V145.98Z" fill="white"/>
<path d="M178.418 137.865H170.31V145.98H178.418V137.865Z" fill="white"/>
<path d="M178.418 129.757H170.31V137.865H178.418V129.757Z" fill="white"/>
<path d="M178.418 121.65H170.31V129.757H178.418V121.65Z" fill="white"/>
<path d="M178.418 113.535H170.31V121.65H178.418V113.535Z" fill="white"/>
<path d="M178.418 105.427H170.31V113.535H178.418V105.427Z" fill="white"/>
<path d="M178.418 97.3201H170.31V105.428H178.418V97.3201Z" fill="white"/>
<path d="M178.418 89.2125H170.31V97.32H178.418V89.2125Z" fill="white"/>
<path d="M178.418 81.0975H170.31V89.2126H178.418V81.0975Z" fill="white"/>
<path d="M178.418 72.99H170.31V81.0975H178.418V72.99Z" fill="white"/>
<path d="M178.418 64.8826H170.31V72.99H178.418V64.8826Z" fill="white"/>
<path d="M178.418 56.7675H170.31V64.8825H178.418V56.7675Z" fill="white"/>
<path d="M178.418 48.66H170.31V56.7675H178.418V48.66Z" fill="white"/>
<path d="M178.418 40.5525H170.31V48.66H178.418V40.5525Z" fill="white"/>
<path d="M178.418 32.4375H170.31V40.5526H178.418V32.4375Z" fill="white"/>
<path d="M178.418 24.33H170.31V32.4374H178.418V24.33Z" fill="white"/>
<path d="M178.418 16.2225H170.31V24.33H178.418V16.2225Z" fill="white"/>
<path d="M178.418 8.11511H170.31V16.2226H178.418V8.11511Z" fill="white"/>
<path d="M178.418 0H170.31V8.11506H178.418V0Z" fill="white"/>
<path d="M170.31 170.31H162.203V178.418H170.31V170.31Z" fill="white"/>
<path d="M170.31 162.195H162.203V170.31H170.31V162.195Z" fill="white"/>
<path d="M170.31 154.088H162.203V162.195H170.31V154.088Z" fill="white"/>
<path d="M170.31 145.98H162.203V154.087H170.31V145.98Z" fill="white"/>
<path d="M170.31 137.865H162.203V145.98H170.31V137.865Z" fill="white"/>
<path d="M170.31 129.757H162.203V137.865H170.31V129.757Z" fill="white"/>
<path d="M170.31 121.65H162.203V129.757H170.31V121.65Z" fill="white"/>
<path d="M170.31 113.535H162.203V121.65H170.31V113.535Z" fill="white"/>
<path d="M170.31 105.427H162.203V113.535H170.31V105.427Z" fill="white"/>
<path d="M170.31 97.3201H162.203V105.428H170.31V97.3201Z" fill="white"/>
<path d="M170.31 89.2125H162.203V97.32H170.31V89.2125Z" fill="white"/>
<path d="M170.31 81.0975H162.203V89.2126H170.31V81.0975Z" fill="white"/>
<path d="M170.31 72.99H162.203V81.0975H170.31V72.99Z" fill="white"/>
<path d="M170.31 64.8826H162.203V72.99H170.31V64.8826Z" fill="white"/>
<path d="M170.31 56.7675H162.203V64.8825H170.31V56.7675Z" fill="white"/>
<path d="M170.31 48.66H162.203V56.7675H170.31V48.66Z" fill="white"/>
<path d="M170.31 40.5525H162.203V48.66H170.31V40.5525Z" fill="white"/>
<path d="M170.31 32.4375H162.203V40.5526H170.31V32.4375Z" fill="white"/>
<path d="M170.31 24.33H162.203V32.4374H170.31V24.33Z" fill="white"/>
<path d="M170.31 16.2225H162.203V24.33H170.31V16.2225Z" fill="white"/>
<path d="M170.31 8.11511H162.203V16.2226H170.31V8.11511Z" fill="white"/>
<path d="M170.31 0H162.203V8.11506H170.31V0Z" fill="white"/>
<path d="M162.202 170.31H154.087V178.418H162.202V170.31Z" fill="white"/>
<path d="M162.202 162.195H154.087V170.31H162.202V162.195Z" fill="white"/>
<path d="M162.202 154.088H154.087V162.195H162.202V154.088Z" fill="white"/>
<path d="M162.202 145.98H154.087V154.087H162.202V145.98Z" fill="white"/>
<path d="M162.202 137.865H154.087V145.98H162.202V137.865Z" fill="white"/>
<path d="M162.202 129.757H154.087V137.865H162.202V129.757Z" fill="white"/>
<path d="M162.202 121.65H154.087V129.757H162.202V121.65Z" fill="white"/>
<path d="M162.202 113.535H154.087V121.65H162.202V113.535Z" fill="white"/>
<path d="M162.202 105.427H154.087V113.535H162.202V105.427Z" fill="white"/>
<path d="M162.202 97.3201H154.087V105.428H162.202V97.3201Z" fill="white"/>
<path d="M162.202 89.2125H154.087V97.32H162.202V89.2125Z" fill="white"/>
<path d="M162.202 81.0975H154.087V89.2126H162.202V81.0975Z" fill="white"/>
<path d="M162.202 72.99H154.087V81.0975H162.202V72.99Z" fill="white"/>
<path d="M162.202 64.8826H154.087V72.99H162.202V64.8826Z" fill="white"/>
<path d="M162.202 56.7675H154.087V64.8825H162.202V56.7675Z" fill="white"/>
<path d="M162.202 48.66H154.087V56.7675H162.202V48.66Z" fill="white"/>
<path d="M162.202 40.5525H154.087V48.66H162.202V40.5525Z" fill="white"/>
<path d="M162.202 32.4375H154.087V40.5526H162.202V32.4375Z" fill="white"/>
<path d="M162.202 24.33H154.087V32.4374H162.202V24.33Z" fill="white"/>
<path d="M162.202 16.2225H154.087V24.33H162.202V16.2225Z" fill="white"/>
<path d="M162.202 8.11511H154.087V16.2226H162.202V8.11511Z" fill="white"/>
<path d="M162.202 0H154.087V8.11506H162.202V0Z" fill="white"/>
<path d="M154.087 170.31H145.98V178.418H154.087V170.31Z" fill="white"/>
<path d="M154.087 162.195H145.98V170.31H154.087V162.195Z" fill="white"/>
<path d="M154.087 154.088H145.98V162.195H154.087V154.088Z" fill="white"/>
<path d="M154.087 145.98H145.98V154.087H154.087V145.98Z" fill="white"/>
<path d="M154.087 137.865H145.98V145.98H154.087V137.865Z" fill="white"/>
<path d="M154.087 129.757H145.98V137.865H154.087V129.757Z" fill="white"/>
<path d="M154.087 121.65H145.98V129.757H154.087V121.65Z" fill="white"/>
<path d="M154.087 113.535H145.98V121.65H154.087V113.535Z" fill="white"/>
<path d="M154.087 105.427H145.98V113.535H154.087V105.427Z" fill="white"/>
<path d="M154.087 97.3201H145.98V105.428H154.087V97.3201Z" fill="white"/>
<path d="M154.087 89.2125H145.98V97.32H154.087V89.2125Z" fill="white"/>
<path d="M154.087 81.0975H145.98V89.2126H154.087V81.0975Z" fill="white"/>
<path d="M154.087 72.99H145.98V81.0975H154.087V72.99Z" fill="white"/>
<path d="M154.087 64.8826H145.98V72.99H154.087V64.8826Z" fill="white"/>
<path d="M154.087 56.7675H145.98V64.8825H154.087V56.7675Z" fill="white"/>
<path d="M154.087 48.66H145.98V56.7675H154.087V48.66Z" fill="white"/>
<path d="M154.087 40.5525H145.98V48.66H154.087V40.5525Z" fill="white"/>
<path d="M154.087 32.4375H145.98V40.5526H154.087V32.4375Z" fill="white"/>
<path d="M154.087 24.33H145.98V32.4374H154.087V24.33Z" fill="white"/>
<path d="M154.087 16.2225H145.98V24.33H154.087V16.2225Z" fill="white"/>
<path d="M154.087 8.11511H145.98V16.2226H154.087V8.11511Z" fill="white"/>
<path d="M154.087 0H145.98V8.11506H154.087V0Z" fill="white"/>
<path d="M145.98 170.31H137.873V178.418H145.98V170.31Z" fill="white"/>
<path d="M145.98 162.195H137.873V170.31H145.98V162.195Z" fill="white"/>
<path d="M145.98 154.088H137.873V162.195H145.98V154.088Z" fill="white"/>
<path d="M145.98 145.98H137.873V154.087H145.98V145.98Z" fill="white"/>
<path d="M145.98 137.865H137.873V145.98H145.98V137.865Z" fill="white"/>
<path d="M145.98 129.757H137.873V137.865H145.98V129.757Z" fill="white"/>
<path d="M145.98 121.65H137.873V129.757H145.98V121.65Z" fill="white"/>
<path d="M145.98 113.535H137.873V121.65H145.98V113.535Z" fill="white"/>
<path d="M145.98 105.427H137.873V113.535H145.98V105.427Z" fill="white"/>
<path d="M145.98 97.3201H137.873V105.428H145.98V97.3201Z" fill="white"/>
<path d="M145.98 89.2125H137.873V97.32H145.98V89.2125Z" fill="white"/>
<path d="M145.98 81.0975H137.873V89.2126H145.98V81.0975Z" fill="white"/>
<path d="M145.98 72.99H137.873V81.0975H145.98V72.99Z" fill="white"/>
<path d="M145.98 64.8826H137.873V72.99H145.98V64.8826Z" fill="white"/>
<path d="M145.98 56.7675H137.873V64.8825H145.98V56.7675Z" fill="white"/>
<path d="M145.98 48.66H137.873V56.7675H145.98V48.66Z" fill="white"/>
<path d="M145.98 40.5525H137.873V48.66H145.98V40.5525Z" fill="white"/>
<path d="M145.98 32.4375H137.873V40.5526H145.98V32.4375Z" fill="white"/>
<path d="M145.98 24.33H137.873V32.4374H145.98V24.33Z" fill="white"/>
<path d="M145.98 16.2225H137.873V24.33H145.98V16.2225Z" fill="white"/>
<path d="M145.98 8.11511H137.873V16.2226H145.98V8.11511Z" fill="white"/>
<path d="M145.98 0H137.873V8.11506H145.98V0Z" fill="white"/>
<path d="M137.872 170.31H129.757V178.418H137.872V170.31Z" fill="white"/>
<path d="M137.872 162.195H129.757V170.31H137.872V162.195Z" fill="white"/>
<path d="M137.872 154.088H129.757V162.195H137.872V154.088Z" fill="white"/>
<path d="M137.872 145.98H129.757V154.087H137.872V145.98Z" fill="white"/>
<path d="M137.872 137.865H129.757V145.98H137.872V137.865Z" fill="white"/>
<path d="M137.872 129.757H129.757V137.865H137.872V129.757Z" fill="white"/>
<path d="M137.872 121.65H129.757V129.757H137.872V121.65Z" fill="white"/>
<path d="M137.872 113.535H129.757V121.65H137.872V113.535Z" fill="white"/>
<path d="M137.872 105.427H129.757V113.535H137.872V105.427Z" fill="white"/>
<path d="M137.872 97.3201H129.757V105.428H137.872V97.3201Z" fill="white"/>
<path d="M137.872 89.2125H129.757V97.32H137.872V89.2125Z" fill="white"/>
<path d="M137.872 81.0975H129.757V89.2126H137.872V81.0975Z" fill="white"/>
<path d="M137.872 72.99H129.757V81.0975H137.872V72.99Z" fill="white"/>
<path d="M137.872 64.8826H129.757V72.99H137.872V64.8826Z" fill="white"/>
<path d="M137.872 56.7675H129.757V64.8825H137.872V56.7675Z" fill="white"/>
<path d="M137.872 48.66H129.757V56.7675H137.872V48.66Z" fill="white"/>
<path d="M137.872 40.5525H129.757V48.66H137.872V40.5525Z" fill="white"/>
<path d="M137.872 32.4375H129.757V40.5526H137.872V32.4375Z" fill="white"/>
<path d="M137.872 24.33H129.757V32.4374H137.872V24.33Z" fill="white"/>
<path d="M137.872 16.2225H129.757V24.33H137.872V16.2225Z" fill="white"/>
<path d="M137.872 8.11511H129.757V16.2226H137.872V8.11511Z" fill="white"/>
<path d="M137.872 0H129.757V8.11506H137.872V0Z" fill="white"/>
<path d="M129.757 170.31H121.65V178.418H129.757V170.31Z" fill="white"/>
<path d="M129.757 162.195H121.65V170.31H129.757V162.195Z" fill="white"/>
<path d="M129.757 154.088H121.65V162.195H129.757V154.088Z" fill="white"/>
<path d="M129.757 145.98H121.65V154.087H129.757V145.98Z" fill="white"/>
<path d="M129.757 137.865H121.65V145.98H129.757V137.865Z" fill="white"/>
<path d="M129.757 129.757H121.65V137.865H129.757V129.757Z" fill="white"/>
<path d="M129.757 121.65H121.65V129.757H129.757V121.65Z" fill="white"/>
<path d="M129.757 113.535H121.65V121.65H129.757V113.535Z" fill="white"/>
<path d="M129.757 105.427H121.65V113.535H129.757V105.427Z" fill="white"/>
<path d="M129.757 97.3201H121.65V105.428H129.757V97.3201Z" fill="white"/>
<path d="M129.757 89.2125H121.65V97.32H129.757V89.2125Z" fill="white"/>
<path d="M129.757 81.0975H121.65V89.2126H129.757V81.0975Z" fill="white"/>
<path d="M129.757 72.99H121.65V81.0975H129.757V72.99Z" fill="white"/>
<path d="M129.757 64.8826H121.65V72.99H129.757V64.8826Z" fill="white"/>
<path d="M129.757 56.7675H121.65V64.8825H129.757V56.7675Z" fill="white"/>
<path d="M129.757 48.66H121.65V56.7675H129.757V48.66Z" fill="white"/>
<path d="M129.757 40.5525H121.65V48.66H129.757V40.5525Z" fill="white"/>
<path d="M129.757 32.4375H121.65V40.5526H129.757V32.4375Z" fill="white"/>
<path d="M129.757 24.33H121.65V32.4374H129.757V24.33Z" fill="white"/>
<path d="M129.757 16.2225H121.65V24.33H129.757V16.2225Z" fill="white"/>
<path d="M129.757 8.11511H121.65V16.2226H129.757V8.11511Z" fill="white"/>
<path d="M129.757 0H121.65V8.11506H129.757V0Z" fill="white"/>
<path d="M121.65 170.31H113.542V178.418H121.65V170.31Z" fill="white"/>
<path d="M121.65 162.195H113.542V170.31H121.65V162.195Z" fill="white"/>
<path d="M121.65 154.088H113.542V162.195H121.65V154.088Z" fill="white"/>
<path d="M121.65 145.98H113.542V154.087H121.65V145.98Z" fill="white"/>
<path d="M121.65 137.865H113.542V145.98H121.65V137.865Z" fill="white"/>
<path d="M121.65 129.757H113.542V137.865H121.65V129.757Z" fill="white"/>
<path d="M121.65 121.65H113.542V129.757H121.65V121.65Z" fill="white"/>
<path d="M121.65 113.535H113.542V121.65H121.65V113.535Z" fill="white"/>
<path d="M121.65 105.427H113.542V113.535H121.65V105.427Z" fill="white"/>
<path d="M121.65 97.3201H113.542V105.428H121.65V97.3201Z" fill="white"/>
<path d="M121.65 89.2125H113.542V97.32H121.65V89.2125Z" fill="white"/>
<path d="M121.65 81.0975H113.542V89.2126H121.65V81.0975Z" fill="white"/>
<path d="M121.65 72.99H113.542V81.0975H121.65V72.99Z" fill="white"/>
<path d="M121.65 64.8826H113.542V72.99H121.65V64.8826Z" fill="white"/>
<path d="M121.65 56.7675H113.542V64.8825H121.65V56.7675Z" fill="white"/>
<path d="M121.65 48.66H113.542V56.7675H121.65V48.66Z" fill="white"/>
<path d="M121.65 40.5525H113.542V48.66H121.65V40.5525Z" fill="white"/>
<path d="M121.65 32.4375H113.542V40.5526H121.65V32.4375Z" fill="white"/>
<path d="M121.65 24.33H113.542V32.4374H121.65V24.33Z" fill="white"/>
<path d="M121.65 16.2225H113.542V24.33H121.65V16.2225Z" fill="white"/>
<path d="M121.65 8.11511H113.542V16.2226H121.65V8.11511Z" fill="white"/>
<path d="M121.65 0H113.542V8.11506H121.65V0Z" fill="white"/>
<path d="M113.542 162.195H105.427V170.31H113.542V162.195Z" fill="white"/>
<path d="M113.542 154.088H105.427V162.195H113.542V154.088Z" fill="white"/>
<path d="M113.542 145.98H105.427V154.087H113.542V145.98Z" fill="white"/>
<path d="M113.542 137.865H105.427V145.98H113.542V137.865Z" fill="white"/>
<path d="M113.542 129.757H105.427V137.865H113.542V129.757Z" fill="white"/>
<path d="M113.542 121.65H105.427V129.757H113.542V121.65Z" fill="white"/>
<path d="M113.542 113.535H105.427V121.65H113.542V113.535Z" fill="white"/>
<path d="M113.542 105.427H105.427V113.535H113.542V105.427Z" fill="white"/>
<path d="M113.542 97.3201H105.427V105.428H113.542V97.3201Z" fill="white"/>
<path d="M113.542 89.2125H105.427V97.32H113.542V89.2125Z" fill="white"/>
<path d="M113.542 81.0975H105.427V89.2126H113.542V81.0975Z" fill="white"/>
<path d="M113.542 72.99H105.427V81.0975H113.542V72.99Z" fill="white"/>
<path d="M113.542 64.8826H105.427V72.99H113.542V64.8826Z" fill="white"/>
<path d="M113.542 56.7675H105.427V64.8825H113.542V56.7675Z" fill="white"/>
<path d="M113.542 48.66H105.427V56.7675H113.542V48.66Z" fill="white"/>
<path d="M113.542 40.5525H105.427V48.66H113.542V40.5525Z" fill="white"/>
<path d="M113.542 32.4375H105.427V40.5526H113.542V32.4375Z" fill="white"/>
<path d="M113.542 24.33H105.427V32.4374H113.542V24.33Z" fill="white"/>
<path d="M113.542 16.2225H105.427V24.33H113.542V16.2225Z" fill="white"/>
<path d="M113.542 8.11511H105.427V16.2226H113.542V8.11511Z" fill="white"/>
<path d="M105.427 162.195H97.3198V170.31H105.427V162.195Z" fill="white"/>
<path d="M105.427 154.088H97.3198V162.195H105.427V154.088Z" fill="white"/>
<path d="M105.427 145.98H97.3198V154.087H105.427V145.98Z" fill="white"/>
<path d="M105.427 137.865H97.3198V145.98H105.427V137.865Z" fill="white"/>
<path d="M105.427 129.757H97.3198V137.865H105.427V129.757Z" fill="white"/>
<path d="M105.427 121.65H97.3198V129.757H105.427V121.65Z" fill="white"/>
<path d="M105.427 113.535H97.3198V121.65H105.427V113.535Z" fill="white"/>
<path d="M105.427 105.427H97.3198V113.535H105.427V105.427Z" fill="white"/>
<path d="M105.427 97.3201H97.3198V105.428H105.427V97.3201Z" fill="white"/>
<path d="M105.427 89.2125H97.3198V97.32H105.427V89.2125Z" fill="white"/>
<path d="M105.427 81.0975H97.3198V89.2126H105.427V81.0975Z" fill="white"/>
<path d="M105.427 72.99H97.3198V81.0975H105.427V72.99Z" fill="white"/>
<path d="M105.427 64.8826H97.3198V72.99H105.427V64.8826Z" fill="white"/>
<path d="M105.427 56.7675H97.3198V64.8825H105.427V56.7675Z" fill="white"/>
<path d="M105.427 48.66H97.3198V56.7675H105.427V48.66Z" fill="white"/>
<path d="M105.427 40.5525H97.3198V48.66H105.427V40.5525Z" fill="white"/>
<path d="M105.427 32.4375H97.3198V40.5526H105.427V32.4375Z" fill="white"/>
<path d="M105.427 24.33H97.3198V32.4374H105.427V24.33Z" fill="white"/>
<path d="M105.427 16.2225H97.3198V24.33H105.427V16.2225Z" fill="white"/>
<path d="M105.427 8.11511H97.3198V16.2226H105.427V8.11511Z" fill="white"/>
<path d="M97.3199 162.195H89.2124V170.31H97.3199V162.195Z" fill="white"/>
<path d="M97.3199 154.088H89.2124V162.195H97.3199V154.088Z" fill="white"/>
<path d="M97.3199 145.98H89.2124V154.087H97.3199V145.98Z" fill="white"/>
<path d="M97.3199 137.865H89.2124V145.98H97.3199V137.865Z" fill="white"/>
<path d="M97.3199 129.757H89.2124V137.865H97.3199V129.757Z" fill="white"/>
<path d="M97.3199 121.65H89.2124V129.757H97.3199V121.65Z" fill="white"/>
<path d="M97.3199 113.535H89.2124V121.65H97.3199V113.535Z" fill="white"/>
<path d="M97.3199 105.427H89.2124V113.535H97.3199V105.427Z" fill="white"/>
<path d="M97.3199 97.3201H89.2124V105.428H97.3199V97.3201Z" fill="white"/>
<path d="M97.3199 89.2125H89.2124V97.32H97.3199V89.2125Z" fill="white"/>
<path d="M97.3199 81.0975H89.2124V89.2126H97.3199V81.0975Z" fill="white"/>
<path d="M97.3199 72.99H89.2124V81.0975H97.3199V72.99Z" fill="white"/>
<path d="M97.3199 64.8826H89.2124V72.99H97.3199V64.8826Z" fill="white"/>
<path d="M97.3199 56.7675H89.2124V64.8825H97.3199V56.7675Z" fill="white"/>
<path d="M97.3199 48.66H89.2124V56.7675H97.3199V48.66Z" fill="white"/>
<path d="M97.3199 40.5525H89.2124V48.66H97.3199V40.5525Z" fill="white"/>
<path d="M97.3199 32.4375H89.2124V40.5526H97.3199V32.4375Z" fill="white"/>
<path d="M97.3199 24.33H89.2124V32.4374H97.3199V24.33Z" fill="white"/>
<path d="M97.3199 16.2225H89.2124V24.33H97.3199V16.2225Z" fill="white"/>
<path d="M97.3199 8.11511H89.2124V16.2226H97.3199V8.11511Z" fill="white"/>
<path d="M89.2124 162.195H81.105V170.31H89.2124V162.195Z" fill="white"/>
<path d="M89.2124 154.088H81.105V162.195H89.2124V154.088Z" fill="white"/>
<path d="M89.2124 145.98H81.105V154.087H89.2124V145.98Z" fill="white"/>
<path d="M89.2124 137.865H81.105V145.98H89.2124V137.865Z" fill="white"/>
<path d="M89.2124 129.757H81.105V137.865H89.2124V129.757Z" fill="white"/>
<path d="M89.2124 121.65H81.105V129.757H89.2124V121.65Z" fill="white"/>
<path d="M89.2124 113.535H81.105V121.65H89.2124V113.535Z" fill="white"/>
<path d="M89.2124 105.427H81.105V113.535H89.2124V105.427Z" fill="white"/>
<path d="M89.2124 97.3201H81.105V105.428H89.2124V97.3201Z" fill="white"/>
<path d="M89.2124 89.2125H81.105V97.32H89.2124V89.2125Z" fill="white"/>
<path d="M89.2124 81.0975H81.105V89.2126H89.2124V81.0975Z" fill="white"/>
<path d="M89.2124 72.99H81.105V81.0975H89.2124V72.99Z" fill="white"/>
<path d="M89.2124 64.8826H81.105V72.99H89.2124V64.8826Z" fill="white"/>
<path d="M89.2124 56.7675H81.105V64.8825H89.2124V56.7675Z" fill="white"/>
<path d="M89.2124 48.66H81.105V56.7675H89.2124V48.66Z" fill="white"/>
<path d="M89.2124 40.5525H81.105V48.66H89.2124V40.5525Z" fill="white"/>
<path d="M89.2124 32.4375H81.105V40.5526H89.2124V32.4375Z" fill="white"/>
<path d="M89.2124 24.33H81.105V32.4374H89.2124V24.33Z" fill="white"/>
<path d="M89.2124 16.2225H81.105V24.33H89.2124V16.2225Z" fill="white"/>
<path d="M89.2124 8.11511H81.105V16.2226H89.2124V8.11511Z" fill="white"/>
<path d="M81.1053 154.088H72.9902V162.195H81.1053V154.088Z" fill="white"/>
<path d="M81.1053 145.98H72.9902V154.087H81.1053V145.98Z" fill="white"/>
<path d="M81.1053 137.865H72.9902V145.98H81.1053V137.865Z" fill="white"/>
<path d="M81.1053 129.757H72.9902V137.865H81.1053V129.757Z" fill="white"/>
<path d="M81.1053 121.65H72.9902V129.757H81.1053V121.65Z" fill="white"/>
<path d="M81.1053 113.535H72.9902V121.65H81.1053V113.535Z" fill="white"/>
<path d="M81.1053 105.427H72.9902V113.535H81.1053V105.427Z" fill="white"/>
<path d="M81.1053 97.3201H72.9902V105.428H81.1053V97.3201Z" fill="white"/>
<path d="M81.1053 89.2125H72.9902V97.32H81.1053V89.2125Z" fill="white"/>
<path d="M81.1053 81.0975H72.9902V89.2126H81.1053V81.0975Z" fill="white"/>
<path d="M81.1053 72.99H72.9902V81.0975H81.1053V72.99Z" fill="white"/>
<path d="M81.1053 64.8826H72.9902V72.99H81.1053V64.8826Z" fill="white"/>
<path d="M81.1053 56.7675H72.9902V64.8825H81.1053V56.7675Z" fill="white"/>
<path d="M81.1053 48.66H72.9902V56.7675H81.1053V48.66Z" fill="white"/>
<path d="M81.1053 40.5525H72.9902V48.66H81.1053V40.5525Z" fill="white"/>
<path d="M81.1053 32.4375H72.9902V40.5526H81.1053V32.4375Z" fill="white"/>
<path d="M81.1053 24.33H72.9902V32.4374H81.1053V24.33Z" fill="white"/>
<path d="M81.1053 16.2225H72.9902V24.33H81.1053V16.2225Z" fill="white"/>
<path d="M72.9898 154.088H64.8823V162.195H72.9898V154.088Z" fill="white"/>
<path d="M72.9898 145.98H64.8823V154.087H72.9898V145.98Z" fill="white"/>
<path d="M72.9898 137.865H64.8823V145.98H72.9898V137.865Z" fill="white"/>
<path d="M72.9898 129.757H64.8823V137.865H72.9898V129.757Z" fill="white"/>
<path d="M72.9898 121.65H64.8823V129.757H72.9898V121.65Z" fill="white"/>
<path d="M72.9898 113.535H64.8823V121.65H72.9898V113.535Z" fill="white"/>
<path d="M72.9898 105.427H64.8823V113.535H72.9898V105.427Z" fill="white"/>
<path d="M72.9898 97.3201H64.8823V105.428H72.9898V97.3201Z" fill="white"/>
<path d="M72.9898 89.2125H64.8823V97.32H72.9898V89.2125Z" fill="white"/>
<path d="M72.9898 81.0975H64.8823V89.2126H72.9898V81.0975Z" fill="white"/>
<path d="M72.9898 72.99H64.8823V81.0975H72.9898V72.99Z" fill="white"/>
<path d="M72.9898 64.8826H64.8823V72.99H72.9898V64.8826Z" fill="white"/>
<path d="M72.9898 56.7675H64.8823V64.8825H72.9898V56.7675Z" fill="white"/>
<path d="M72.9898 48.66H64.8823V56.7675H72.9898V48.66Z" fill="white"/>
<path d="M72.9898 40.5525H64.8823V48.66H72.9898V40.5525Z" fill="white"/>
<path d="M72.9898 32.4375H64.8823V40.5526H72.9898V32.4375Z" fill="white"/>
<path d="M72.9898 24.33H64.8823V32.4374H72.9898V24.33Z" fill="white"/>
<path d="M72.9898 16.2225H64.8823V24.33H72.9898V16.2225Z" fill="white"/>
<path d="M64.8826 154.088H56.7751V162.195H64.8826V154.088Z" fill="white"/>
<path d="M64.8826 145.98H56.7751V154.087H64.8826V145.98Z" fill="white"/>
<path d="M64.8826 137.865H56.7751V145.98H64.8826V137.865Z" fill="white"/>
<path d="M64.8826 129.757H56.7751V137.865H64.8826V129.757Z" fill="white"/>
<path d="M64.8826 121.65H56.7751V129.757H64.8826V121.65Z" fill="white"/>
<path d="M64.8826 113.535H56.7751V121.65H64.8826V113.535Z" fill="white"/>
<path d="M64.8826 105.427H56.7751V113.535H64.8826V105.427Z" fill="white"/>
<path d="M64.8826 97.3201H56.7751V105.428H64.8826V97.3201Z" fill="white"/>
<path d="M64.8826 89.2125H56.7751V97.32H64.8826V89.2125Z" fill="white"/>
<path d="M64.8826 81.0975H56.7751V89.2126H64.8826V81.0975Z" fill="white"/>
<path d="M64.8826 72.99H56.7751V81.0975H64.8826V72.99Z" fill="white"/>
<path d="M64.8826 64.8826H56.7751V72.99H64.8826V64.8826Z" fill="white"/>
<path d="M64.8826 56.7675H56.7751V64.8825H64.8826V56.7675Z" fill="white"/>
<path d="M64.8826 48.66H56.7751V56.7675H64.8826V48.66Z" fill="white"/>
<path d="M64.8826 40.5525H56.7751V48.66H64.8826V40.5525Z" fill="white"/>
<path d="M64.8826 32.4375H56.7751V40.5526H64.8826V32.4375Z" fill="white"/>
<path d="M64.8826 24.33H56.7751V32.4374H64.8826V24.33Z" fill="white"/>
<path d="M56.775 145.98H48.6599V154.087H56.775V145.98Z" fill="white"/>
<path d="M56.775 137.865H48.6599V145.98H56.775V137.865Z" fill="white"/>
<path d="M56.775 129.757H48.6599V137.865H56.775V129.757Z" fill="white"/>
<path d="M56.775 121.65H48.6599V129.757H56.775V121.65Z" fill="white"/>
<path d="M56.775 113.535H48.6599V121.65H56.775V113.535Z" fill="white"/>
<path d="M56.775 105.427H48.6599V113.535H56.775V105.427Z" fill="white"/>
<path d="M56.775 97.3201H48.6599V105.428H56.775V97.3201Z" fill="white"/>
<path d="M56.775 89.2125H48.6599V97.32H56.775V89.2125Z" fill="white"/>
<path d="M56.775 81.0975H48.6599V89.2126H56.775V81.0975Z" fill="white"/>
<path d="M56.775 72.99H48.6599V81.0975H56.775V72.99Z" fill="white"/>
<path d="M56.775 64.8826H48.6599V72.99H56.775V64.8826Z" fill="white"/>
<path d="M56.775 56.7675H48.6599V64.8825H56.775V56.7675Z" fill="white"/>
<path d="M56.775 48.66H48.6599V56.7675H56.775V48.66Z" fill="white"/>
<path d="M56.775 40.5525H48.6599V48.66H56.775V40.5525Z" fill="white"/>
<path d="M56.775 32.4375H48.6599V40.5526H56.775V32.4375Z" fill="white"/>
<path d="M56.775 24.33H48.6599V32.4374H56.775V24.33Z" fill="white"/>
<path d="M48.66 145.98H40.5525V154.087H48.66V145.98Z" fill="white"/>
<path d="M48.66 137.865H40.5525V145.98H48.66V137.865Z" fill="white"/>
<path d="M48.66 129.757H40.5525V137.865H48.66V129.757Z" fill="white"/>
<path d="M48.66 121.65H40.5525V129.757H48.66V121.65Z" fill="white"/>
<path d="M48.66 113.535H40.5525V121.65H48.66V113.535Z" fill="white"/>
<path d="M48.66 105.427H40.5525V113.535H48.66V105.427Z" fill="white"/>
<path d="M48.66 97.3201H40.5525V105.428H48.66V97.3201Z" fill="white"/>
<path d="M48.66 89.2125H40.5525V97.32H48.66V89.2125Z" fill="white"/>
<path d="M48.66 81.0975H40.5525V89.2126H48.66V81.0975Z" fill="white"/>
<path d="M48.66 72.99H40.5525V81.0975H48.66V72.99Z" fill="white"/>
<path d="M48.66 64.8826H40.5525V72.99H48.66V64.8826Z" fill="white"/>
<path d="M48.66 56.7675H40.5525V64.8825H48.66V56.7675Z" fill="white"/>
<path d="M48.66 48.66H40.5525V56.7675H48.66V48.66Z" fill="white"/>
<path d="M48.66 40.5525H40.5525V48.66H48.66V40.5525Z" fill="white"/>
<path d="M48.66 32.4375H40.5525V40.5526H48.66V32.4375Z" fill="white"/>
<path d="M40.5525 137.865H32.4451V145.98H40.5525V137.865Z" fill="white"/>
<path d="M40.5525 129.757H32.4451V137.865H40.5525V129.757Z" fill="white"/>
<path d="M40.5525 121.65H32.4451V129.757H40.5525V121.65Z" fill="white"/>
<path d="M40.5525 113.535H32.4451V121.65H40.5525V113.535Z" fill="white"/>
<path d="M40.5525 105.427H32.4451V113.535H40.5525V105.427Z" fill="white"/>
<path d="M40.5525 97.3201H32.4451V105.428H40.5525V97.3201Z" fill="white"/>
<path d="M40.5525 89.2125H32.4451V97.32H40.5525V89.2125Z" fill="white"/>
<path d="M40.5525 81.0975H32.4451V89.2126H40.5525V81.0975Z" fill="white"/>
<path d="M40.5525 72.99H32.4451V81.0975H40.5525V72.99Z" fill="white"/>
<path d="M40.5525 64.8826H32.4451V72.99H40.5525V64.8826Z" fill="white"/>
<path d="M40.5525 56.7675H32.4451V64.8825H40.5525V56.7675Z" fill="white"/>
<path d="M40.5525 48.66H32.4451V56.7675H40.5525V48.66Z" fill="white"/>
<path d="M40.5525 40.5525H32.4451V48.66H40.5525V40.5525Z" fill="white"/>
<path d="M40.5525 32.4375H32.4451V40.5526H40.5525V32.4375Z" fill="white"/>
<path d="M32.4451 137.865H24.3301V145.98H32.4451V137.865Z" fill="white"/>
<path d="M32.4451 129.757H24.3301V137.865H32.4451V129.757Z" fill="white"/>
<path d="M32.4451 121.65H24.3301V129.757H32.4451V121.65Z" fill="white"/>
<path d="M32.4451 113.535H24.3301V121.65H32.4451V113.535Z" fill="white"/>
<path d="M32.4451 105.427H24.3301V113.535H32.4451V105.427Z" fill="white"/>
<path d="M32.4451 97.3201H24.3301V105.428H32.4451V97.3201Z" fill="white"/>
<path d="M32.4451 89.2125H24.3301V97.32H32.4451V89.2125Z" fill="white"/>
<path d="M32.4451 81.0975H24.3301V89.2126H32.4451V81.0975Z" fill="white"/>
<path d="M32.4451 72.99H24.3301V81.0975H32.4451V72.99Z" fill="white"/>
<path d="M32.4451 64.8826H24.3301V72.99H32.4451V64.8826Z" fill="white"/>
<path d="M32.4451 56.7675H24.3301V64.8825H32.4451V56.7675Z" fill="white"/>
<path d="M32.4451 48.66H24.3301V56.7675H32.4451V48.66Z" fill="white"/>
<path d="M32.4451 40.5525H24.3301V48.66H32.4451V40.5525Z" fill="white"/>
<path d="M24.3299 129.757H16.2224V137.865H24.3299V129.757Z" fill="white"/>
<path d="M24.3299 121.65H16.2224V129.757H24.3299V121.65Z" fill="white"/>
<path d="M24.3299 113.535H16.2224V121.65H24.3299V113.535Z" fill="white"/>
<path d="M24.3299 105.427H16.2224V113.535H24.3299V105.427Z" fill="white"/>
<path d="M24.3299 97.3201H16.2224V105.428H24.3299V97.3201Z" fill="white"/>
<path d="M24.3299 89.2125H16.2224V97.32H24.3299V89.2125Z" fill="white"/>
<path d="M24.3299 81.0975H16.2224V89.2126H24.3299V81.0975Z" fill="white"/>
<path d="M24.3299 72.99H16.2224V81.0975H24.3299V72.99Z" fill="white"/>
<path d="M24.3299 64.8826H16.2224V72.99H24.3299V64.8826Z" fill="white"/>
<path d="M24.3299 56.7675H16.2224V64.8825H24.3299V56.7675Z" fill="white"/>
<path d="M24.3299 48.66H16.2224V56.7675H24.3299V48.66Z" fill="white"/>
<path d="M16.2225 121.65H8.11499V129.757H16.2225V121.65Z" fill="white"/>
<path d="M16.2225 113.535H8.11499V121.65H16.2225V113.535Z" fill="white"/>
<path d="M16.2225 105.427H8.11499V113.535H16.2225V105.427Z" fill="white"/>
<path d="M16.2225 97.3201H8.11499V105.428H16.2225V97.3201Z" fill="white"/>
<path d="M16.2225 89.2125H8.11499V97.32H16.2225V89.2125Z" fill="white"/>
<path d="M16.2225 81.0975H8.11499V89.2126H16.2225V81.0975Z" fill="white"/>
<path d="M16.2225 72.99H8.11499V81.0975H16.2225V72.99Z" fill="white"/>
<path d="M16.2225 64.8826H8.11499V72.99H16.2225V64.8826Z" fill="white"/>
<path d="M16.2225 56.7675H8.11499V64.8825H16.2225V56.7675Z" fill="white"/>
<path d="M8.11506 105.427H0V113.535H8.11506V105.427Z" fill="white"/>
<path d="M8.11506 97.3201H0V105.428H8.11506V97.3201Z" fill="white"/>
<path d="M8.11506 89.2125H0V97.32H8.11506V89.2125Z" fill="white"/>
<path d="M8.11506 81.0975H0V89.2126H8.11506V81.0975Z" fill="white"/>
<path d="M8.11506 72.99H0V81.0975H8.11506V72.99Z" fill="white"/>
</svg>
